<svg width="38" height="38" viewBox="0 0 38 38" fill="none" xmlns="http://www.w3.org/2000/svg">
<path d="M24.5416 7.9165C26.7654 7.9165 27.8772 7.9165 28.6759 8.45018C29.0217 8.68122 29.3186 8.9781 29.5496 9.32386C30.0833 10.1226 30.0833 11.2344 30.0833 13.4582V28.4998C30.0833 31.4854 30.0833 32.9782 29.1558 33.9057C28.2283 34.8332 26.7355 34.8332 23.75 34.8332H14.25C11.2644 34.8332 9.77162 34.8332 8.84412 33.9057C7.91663 32.9782 7.91663 31.4854 7.91663 28.4998V13.4582C7.91663 11.2344 7.91663 10.1226 8.45031 9.32386C8.68134 8.9781 8.97822 8.68122 9.32399 8.45018C10.1227 7.9165 11.2346 7.9165 13.4583 7.9165" stroke="white" stroke-width="2"/>
<path d="M14.25 7.91667C14.25 6.16777 15.6678 4.75 17.4167 4.75H20.5833C22.3322 4.75 23.75 6.16777 23.75 7.91667C23.75 9.66557 22.3322 11.0833 20.5833 11.0833H17.4167C15.6678 11.0833 14.25 9.66557 14.25 7.91667Z" stroke="white" stroke-width="2"/>
<path d="M14.25 19L23.75 19" stroke="white" stroke-width="2" stroke-linecap="round"/>
<path d="M14.25 25.3335L20.5833 25.3335" stroke="white" stroke-width="2" stroke-linecap="round"/>
</svg>
