<svg width="14" height="19" viewBox="0 0 14 19" fill="none" xmlns="http://www.w3.org/2000/svg">
<path d="M7.34801 16.2874L12.6368 13.3043M4.45017 4.96405L10.1816 14.6892M6.8351 3.23235C6.92204 3.38218 6.86556 3.57656 6.70895 3.66653L1.95923 6.39493C1.80262 6.48489 1.60518 6.43636 1.51824 6.28653C-0.441898 2.90862 0.833465 1.61597 1.97279 0.961499C3.11212 0.307032 4.87169 -0.151193 6.8351 3.23235ZM6.99251 3.50364L12.5559 13.091C12.6236 13.2077 12.6565 13.3415 12.6493 13.4761C12.5575 15.1752 12.3232 16.6641 12.1677 17.5097C12.0939 17.9112 11.6874 18.1468 11.3001 18.0122C10.4824 17.7281 9.06101 17.1913 7.52779 16.4181C7.40683 16.3571 7.30673 16.2618 7.23892 16.145L1.67566 6.55781L6.99251 3.50364Z" stroke="#080A00" stroke-linecap="round"/>
</svg>
